<?xml version="1.0" standalone="no"?>
<!DOCTYPE svg PUBLIC "-//W3C//DTD SVG 20010904//EN"
 "http://www.w3.org/TR/2001/REC-SVG-20010904/DTD/svg10.dtd">
<svg version="1.0" xmlns="http://www.w3.org/2000/svg"
 width="400.000000pt" height="400.000000pt" viewBox="0 0 400.000000 400.000000"
 preserveAspectRatio="xMidYMid meet">

<g transform="translate(0.000000,400.000000) scale(0.100000,-0.100000)"
fill="#cc1123" stroke="none">
<path d="M1510 3781 c-53 -16 -88 -41 -98 -70 -23 -66 71 -193 202 -271 41
-25 76 -47 76 -50 0 -3 -33 -11 -72 -17 -207 -33 -408 -132 -607 -297 -120
-101 -197 -190 -252 -291 -41 -77 -53 -90 -129 -145 -93 -67 -110 -74 -174
-69 -41 4 -43 3 -29 -13 25 -28 79 -48 128 -48 41 0 46 -2 40 -17 -20 -51 -35
-141 -44 -250 -13 -164 -44 -228 -131 -268 l-35 -16 69 5 c71 6 140 38 153 71
10 29 19 14 33 -52 7 -38 22 -87 33 -110 l21 -43 -21 -22 c-30 -31 -63 -107
-63 -143 0 -57 93 -171 172 -210 45 -22 78 -78 117 -200 37 -111 66 -165 155
-282 72 -95 88 -123 114 -204 16 -52 42 -122 57 -157 l26 -63 -110 -147 c-66
-87 -106 -149 -99 -151 7 -2 21 9 33 24 11 15 66 89 122 164 87 117 99 137 83
143 -10 4 -21 17 -25 30 -31 100 -105 264 -149 326 -126 181 -177 268 -201
344 -14 43 -34 96 -45 119 -12 22 -18 45 -14 52 4 7 4 9 -1 5 -9 -8 -125 50
-125 62 0 5 -15 23 -33 42 -65 65 -72 104 -31 186 33 67 80 107 134 116 23 4
54 16 68 26 51 40 86 18 121 -76 13 -32 23 -83 23 -114 1 -39 5 -57 14 -57 9
0 12 26 9 111 -4 128 6 201 42 306 57 168 157 318 284 429 79 69 170 131 191
131 7 0 41 13 74 29 l61 29 7 -59 c5 -57 26 -111 45 -123 5 -4 7 18 4 51 -4
40 0 69 10 93 l15 35 1 -43 c2 -86 66 -227 169 -372 54 -75 192 -222 251 -265
49 -36 52 -43 41 -89 -4 -20 -4 -59 0 -88 4 -29 8 -46 9 -36 0 9 24 28 53 42
l53 26 7 -26 c9 -34 46 -74 69 -74 10 0 24 9 32 21 15 20 15 20 78 -10 35 -17
83 -38 107 -48 27 -11 50 -29 62 -51 l20 -34 -36 -49 c-49 -67 -101 -93 -171
-86 l-53 6 17 -30 c20 -34 68 -69 138 -101 41 -19 68 -22 152 -23 57 0 103 -1
103 -1 0 -1 -9 -31 -20 -66 -16 -54 -29 -74 -77 -119 -130 -124 -331 -227
-558 -286 -90 -24 -119 -26 -285 -27 -163 -1 -195 2 -270 22 -221 60 -362 133
-475 247 -44 44 -90 101 -102 126 -25 51 -30 128 -12 192 13 48 5 72 -11 32
-17 -45 -24 -154 -11 -200 17 -64 94 -158 184 -226 114 -86 305 -173 429 -194
27 -5 38 -13 42 -31 7 -28 115 -144 133 -144 7 0 13 -4 13 -10 0 -5 6 -7 13
-5 6 2 28 0 47 -4 19 -5 29 -9 22 -10 -8 -1 -29 -8 -47 -17 -35 -16 -38 -37
-7 -61 12 -10 26 -7 75 19 33 18 62 40 65 50 3 13 14 18 41 18 20 0 87 9 150
20 62 11 123 20 135 20 40 0 124 -69 289 -237 91 -92 183 -189 205 -215 23
-27 44 -43 47 -38 8 12 -123 158 -301 336 -119 120 -130 135 -126 162 2 16 -1
33 -7 36 -21 13 -11 28 13 22 26 -6 56 1 56 13 0 4 -11 13 -25 19 -16 8 -25
20 -25 35 0 40 28 54 121 61 47 3 119 17 160 30 41 13 75 23 77 21 2 -1 -9
-17 -23 -34 l-27 -31 29 0 c33 0 118 52 134 81 13 24 46 24 100 -1 71 -32 146
-21 202 30 l32 29 -33 1 c-48 0 -92 46 -92 95 0 52 22 96 94 189 35 46 87 117
115 159 75 109 171 322 171 377 0 17 7 20 50 21 28 1 55 3 60 4 6 1 18 3 28 4
20 1 102 52 102 63 0 4 -8 6 -17 6 -39 -2 -100 23 -131 53 -61 60 -90 113
-107 201 -55 273 -179 517 -373 728 -32 36 -66 79 -75 96 -16 31 -146 169
-198 210 -154 123 -494 309 -759 416 -340 138 -497 177 -590 149z m357 -76
c262 -84 577 -236 798 -384 133 -89 280 -205 319 -252 43 -50 83 -144 97 -227
14 -85 0 -212 -32 -277 -12 -26 -17 -31 -14 -15 23 111 12 196 -43 329 -48
116 -118 216 -221 318 -110 109 -245 198 -470 309 -216 107 -286 136 -421 176
-92 27 -121 31 -230 32 -100 1 -131 -3 -157 -16 -17 -10 -33 -23 -36 -30 -6
-17 -14 -9 -22 24 -5 21 -2 30 18 42 69 46 215 35 414 -29z m161 -135 c35 -11
93 -35 130 -53 80 -41 260 -147 249 -147 -4 0 -44 10 -89 21 -114 30 -241 24
-315 -14 -28 -15 -54 -31 -58 -37 -12 -20 -22 -9 -64 70 -52 99 -61 166 -23
186 26 13 60 7 170 -26z m-194 -225 c102 -27 99 -35 -9 -29 -139 8 -263 -18
-415 -86 -63 -28 -126 -61 -140 -74 -14 -12 -51 -42 -82 -65 -180 -135 -362
-421 -428 -671 -39 -151 -53 -302 -41 -450 5 -65 5 -119 0 -124 -10 -12 -34
42 -55 126 -24 94 -15 306 18 416 14 46 22 80 18 75 -18 -18 -53 -164 -58
-239 -3 -59 -11 -94 -31 -134 -28 -57 -54 -80 -115 -105 l-39 -16 35 40 c44
51 66 122 78 252 11 120 31 196 66 257 26 44 23 52 -10 27 -20 -15 -110 -21
-141 -8 -12 4 -1 11 36 23 30 9 88 40 130 69 60 41 83 64 104 104 67 125 142
222 214 277 25 19 51 42 58 51 17 23 173 128 263 177 197 107 395 146 544 107z
m750 -594 c20 -21 30 -43 33 -75 13 -108 -62 -85 -102 32 -24 70 18 96 69 43z
m-1358 -167 c-19 -88 -37 -180 -41 -206 -3 -26 -11 -50 -17 -54 -8 -5 -138
118 -138 132 0 25 215 302 227 291 2 -3 -11 -76 -31 -163z m1674 130 c0 -16
-16 -19 -25 -4 -8 13 4 32 16 25 5 -4 9 -13 9 -21z m-885 -151 c21 -73 96
-246 147 -341 33 -59 38 -76 27 -88 -10 -12 -19 -4 -57 52 -59 89 -97 172
-122 268 -18 71 -27 166 -16 166 3 0 12 -26 21 -57z m244 -481 c13 -19 17 -33
11 -42 -7 -12 -14 -10 -34 10 -28 26 -35 60 -12 60 8 0 24 -13 35 -28z m176
-190 c-9 -9 -35 8 -35 24 0 16 2 16 20 -1 11 -10 18 -20 15 -23z m-199 -1064
c-35 -49 -50 -88 -38 -100 8 -8 20 -3 47 20 19 18 54 41 76 53 40 20 41 20 34
0 -4 -15 2 -24 25 -37 22 -14 30 -26 30 -47 0 -25 -2 -28 -15 -17 -22 18 -78
15 -230 -10 -133 -23 -213 -26 -228 -11 -5 5 -26 6 -48 4 -21 -3 -39 -3 -39 0
0 4 19 16 43 28 23 12 63 41 89 65 25 24 57 45 70 48 62 13 136 24 167 25 33
1 33 1 17 -21z m-444 -15 c25 -15 59 -133 38 -133 -5 0 -10 7 -10 15 0 8 -6
15 -13 15 -23 0 -97 88 -97 115 0 7 68 -3 82 -12z m169 -31 c-19 -20 -51 -44
-72 -54 l-39 -17 0 30 c0 16 -7 40 -14 52 l-15 22 87 1 87 2 -34 -36z"/>
<path d="M1172 2628 c-53 -68 -112 -157 -112 -170 0 -11 92 -110 97 -105 2 2
12 52 23 110 10 58 26 132 34 164 8 31 14 59 12 61 -2 1 -26 -25 -54 -60z"/>
<path d="M1363 2379 c-46 -23 -103 -81 -103 -104 0 -19 5 -19 70 6 55 21 125
28 190 19 32 -5 35 -3 38 22 2 20 -5 32 -31 52 -43 33 -105 35 -164 5z"/>
<path d="M1190 2155 c0 -9 5 -26 11 -37 9 -18 5 -27 -35 -67 -49 -50 -85 -120
-86 -164 0 -48 41 -107 76 -107 3 0 4 22 0 49 -14 109 44 207 147 246 68 26
173 17 227 -19 62 -41 81 -32 35 18 -59 64 -185 87 -286 52 -45 -16 -69 -9
-69 20 0 7 -4 16 -10 19 -5 3 -10 -1 -10 -10z"/>
<path d="M1342 2014 c-59 -30 -103 -120 -117 -241 -7 -64 6 -117 19 -76 8 25
55 69 84 78 17 5 22 2 22 -13 0 -26 45 -66 65 -58 9 3 24 24 32 46 18 45 29
46 89 9 17 -11 35 -19 39 -19 16 0 -4 142 -26 186 -39 82 -137 123 -207 88z
m108 -133 c13 -25 2 -53 -19 -49 -17 3 -26 31 -17 54 8 20 23 18 36 -5z"/>
<path d="M923 1524 c-35 -35 -60 -64 -57 -64 9 0 105 93 115 112 14 26 11 23
-58 -48z"/>
<path d="M2105 1478 c-36 -21 -158 -48 -219 -48 -40 0 -56 -3 -47 -9 28 -18
176 5 258 40 l43 18 19 -37 c20 -40 48 -122 54 -162 3 -14 3 -7 2 15 -3 51
-58 189 -76 192 -8 2 -23 -3 -34 -9z"/>
<path d="M1741 1404 c-33 -10 -55 -11 -80 -4 -32 8 -34 8 -18 -5 15 -11 19
-30 21 -102 3 -105 24 -160 88 -229 48 -52 105 -85 145 -83 21 1 23 3 8 6 -72
18 -163 90 -197 158 -12 22 -23 67 -25 100 -6 80 16 122 77 152 51 25 45 27
-19 7z"/>
<path d="M2212 1158 c-5 -65 -42 -125 -97 -159 -16 -11 -25 -19 -19 -19 22 0
78 46 98 79 20 35 38 119 27 126 -4 2 -8 -10 -9 -27z"/>
<path d="M2420 539 c0 -5 -14 -47 -32 -91 -28 -70 -33 -78 -39 -57 -4 13 -8
42 -8 64 -2 52 -11 85 -24 85 -6 0 -7 -19 -3 -52 3 -29 11 -102 16 -163 5 -60
12 -134 15 -163 5 -48 3 -53 -17 -62 -13 -5 -17 -9 -10 -9 7 -1 13 -15 13 -33
l2 -33 6 35 7 35 8 -33 c10 -40 28 -32 19 9 l-6 29 48 -20 c25 -11 61 -20 78
-20 29 0 26 3 -26 24 -105 44 -104 42 -109 153 -5 97 -5 99 33 178 41 88 55
135 39 135 -5 0 -10 -5 -10 -11z"/>
<path d="M1680 333 c-32 -12 -60 -47 -60 -74 0 -50 60 -64 117 -29 37 22 53
65 32 86 -16 16 -67 26 -89 17z"/>
<path d="M1530 140 c0 -12 48 -25 58 -16 8 9 -18 26 -40 26 -10 0 -18 -4 -18
-10z"/>
<path d="M1673 108 c-14 -7 -23 -20 -23 -35 0 -18 5 -23 25 -23 15 0 28 7 32
18 6 14 8 13 13 -7 7 -29 30 -40 30 -15 0 16 1 16 14 -2 12 -16 15 -16 19 -4
12 37 14 60 6 60 -5 0 -9 -7 -9 -16 0 -12 -6 -10 -21 10 -22 27 -49 32 -86 14z"/>
<path d="M1810 65 c0 -30 3 -35 23 -34 16 1 18 2 5 6 -10 2 -18 8 -18 13 0 5
8 11 18 13 16 4 16 5 0 6 -10 0 -18 5 -18 10 0 5 8 12 18 14 13 4 11 5 -5 6
-20 1 -23 -4 -23 -34z"/>
<path d="M1870 65 l0 -34 26 24 c28 26 25 45 -7 45 -15 0 -19 -7 -19 -35z m30
15 c0 -5 -4 -10 -10 -10 -5 0 -10 5 -10 10 0 6 5 10 10 10 6 0 10 -4 10 -10z"/>
<path d="M1950 65 l0 -34 26 24 c28 26 25 45 -7 45 -15 0 -19 -7 -19 -35z m30
15 c0 -5 -4 -10 -10 -10 -5 0 -10 5 -10 10 0 6 5 10 10 10 6 0 10 -4 10 -10z"/>
<path d="M2010 63 c0 -30 3 -35 11 -23 8 11 12 12 16 3 9 -24 20 -13 21 22 1
31 -1 35 -23 35 -22 0 -25 -4 -25 -37z"/>
<path d="M2076 82 c-10 -30 4 -53 28 -50 31 4 30 62 -1 66 -14 2 -23 -3 -27
-16z m34 -19 c0 -20 -3 -24 -11 -16 -7 7 -9 19 -6 27 10 24 17 19 17 -11z"/>
<path d="M2160 69 c0 -17 -4 -28 -10 -24 -5 3 -10 1 -10 -5 0 -6 8 -10 18 -8
19 4 31 68 13 68 -6 0 -11 -14 -11 -31z"/>
<path d="M2190 65 c0 -32 3 -35 28 -34 16 1 20 3 10 6 -21 5 -23 19 -5 26 10
4 10 6 0 6 -19 1 -16 19 5 24 10 3 6 5 -10 6 -25 1 -28 -2 -28 -34z"/>
<path d="M2254 86 c-10 -26 1 -51 24 -54 12 -2 22 2 22 8 0 7 -7 10 -15 6 -11
-4 -15 1 -15 19 0 18 4 23 15 19 8 -4 15 -1 15 5 0 16 -40 13 -46 -3z"/>
</g>
</svg>
